<svg width="66" height="24" viewBox="0 0 66 24" fill="none" xmlns="http://www.w3.org/2000/svg">
<path d="M9.27207 23.18C6.17207 23.18 3.89207 22.39 2.43207 20.81C0.99207 19.23 0.27207 17.15 0.27207 14.57C0.27207 11.97 0.71207 9.61 1.59207 7.49C2.49207 5.35 3.82207 3.6 5.58207 2.24C7.34207 0.859999 9.24207 0.169999 11.2821 0.169999C13.3421 0.169999 14.9521 0.669999 16.1121 1.67C17.2921 2.65 17.8821 3.98 17.8821 5.66C17.8821 7.32 17.3621 8.7 16.3221 9.8C15.3021 10.9 14.1021 11.45 12.7221 11.45C11.3421 11.45 10.2721 11.15 9.51207 10.55C8.75207 9.93 8.37207 9.28 8.37207 8.6C8.37207 7.9 8.64207 7.36 9.18207 6.98C9.74207 6.58 10.5521 6.38 11.6121 6.38C11.3521 6.64 11.2221 6.99 11.2221 7.43C11.2221 7.85 11.3521 8.22 11.6121 8.54C11.8721 8.86 12.2721 9.02 12.8121 9.02C13.3521 9.02 13.8921 8.74 14.4321 8.18C14.9721 7.6 15.2421 6.84 15.2421 5.9C15.2421 4.96 14.9521 4.21 14.3721 3.65C13.8121 3.09 13.0121 2.81 11.9721 2.81C10.6121 2.81 9.37207 3.36 8.25207 4.46C7.15207 5.56 6.31207 6.96 5.73207 8.66C5.15207 10.36 4.86207 12.15 4.86207 14.03C4.86207 15.65 5.21207 17.08 5.91207 18.32C6.27207 18.96 6.80207 19.47 7.50207 19.85C8.22207 20.23 9.06207 20.42 10.0221 20.42C11.6621 20.42 13.2421 19.9 14.7621 18.86C16.2821 17.8 17.5621 16.44 18.6021 14.78L19.6221 16.61C18.4421 18.53 16.9621 20.11 15.1821 21.35C13.4021 22.57 11.4321 23.18 9.27207 23.18ZM25.8079 19.58L26.5279 12.95C26.5279 12.41 26.3879 11.96 26.1079 11.6C25.8279 11.24 25.3779 11.06 24.7579 11.06C24.1379 11.06 23.6079 11.31 23.1679 11.81C22.7479 12.29 22.4379 12.93 22.2379 13.73C22.0979 14.87 21.8879 16.54 21.6079 18.74C21.3279 20.92 21.1479 22.34 21.0679 23H17.0779C18.5179 10.74 19.3879 3.21 19.6879 0.409999C20.1079 0.249999 20.6779 0.169999 21.3979 0.169999C22.9579 0.169999 23.7379 0.629999 23.7379 1.55V1.73C23.3979 4.87 23.0379 7.63 22.6579 10.01C23.7179 9.05 24.9179 8.57 26.2579 8.57C27.5979 8.57 28.6579 8.91 29.4379 9.59C30.2179 10.27 30.6079 11.13 30.6079 12.17C30.6079 12.45 30.5479 12.97 30.4279 13.73C29.9679 16.73 29.7379 18.49 29.7379 19.01C29.7379 19.95 30.0479 20.42 30.6679 20.42C31.1879 20.42 31.7379 20.08 32.3179 19.4C32.9179 18.7 33.3979 17.63 33.7579 16.19C34.4379 16.91 34.8479 17.48 34.9879 17.9C33.9479 21.38 32.1079 23.12 29.4679 23.12C28.2279 23.12 27.3079 22.74 26.7079 21.98C26.1079 21.22 25.8079 20.42 25.8079 19.58ZM38.11 16.28C39.35 16.02 40.27 15.52 40.87 14.78C41.49 14.04 41.8 13.33 41.8 12.65C41.8 11.95 41.61 11.48 41.23 11.24C40.87 10.98 40.47 10.85 40.03 10.85C39.09 10.85 38.26 11.38 37.54 12.44C36.84 13.48 36.49 14.73 36.49 16.19C36.49 17.63 36.83 18.71 37.51 19.43C38.21 20.13 39.07 20.48 40.09 20.48C41.59 20.48 43.03 19.96 44.41 18.92C45.79 17.88 46.91 16.52 47.77 14.84C48.21 15.26 48.61 15.78 48.97 16.4C48.31 17.9 47.14 19.37 45.46 20.81C44.62 21.51 43.62 22.08 42.46 22.52C41.32 22.96 40.14 23.18 38.92 23.18C36.92 23.18 35.34 22.57 34.18 21.35C32.94 20.03 32.32 18.34 32.32 16.28C32.32 14.22 33.09 12.42 34.63 10.88C36.19 9.34 38.05 8.57 40.21 8.57C41.75 8.57 43 8.91 43.96 9.59C44.92 10.25 45.41 11.15 45.43 12.29C45.43 13.83 44.81 15.08 43.57 16.04C42.35 17 40.67 17.67 38.53 18.05L38.11 16.28ZM50.5246 23.21C49.3046 23.21 48.3446 22.87 47.6446 22.19C46.9446 21.49 46.5946 20.54 46.5946 19.34C46.5946 19.02 47.1346 14.27 48.2146 5.09C48.4946 2.73 49.2446 1.24 50.4646 0.619998C51.0246 0.319999 51.6946 0.169999 52.4746 0.169999C55.1146 0.169999 56.4346 1.39 56.4346 3.83C56.4346 4.03 56.4246 4.24 56.4046 4.46C56.2046 7.14 54.5246 9.87 51.3646 12.65C51.2646 13.63 51.1546 14.58 51.0346 15.5C50.7946 17.56 50.6746 18.7 50.6746 18.92C50.6746 19.96 51.1246 20.48 52.0246 20.48C53.0046 20.48 53.9146 19.92 54.7546 18.8C55.6146 17.66 56.2746 16.21 56.7346 14.45C56.9146 14.51 57.1646 14.68 57.4846 14.96C57.8046 15.22 58.0246 15.45 58.1446 15.65C57.8246 17.31 57.1046 18.9 55.9846 20.42C55.4246 21.2 54.7146 21.84 53.8546 22.34C52.8746 22.92 51.7646 23.21 50.5246 23.21ZM51.6946 9.65C53.5346 7.63 54.4546 5.82 54.4546 4.22C54.4546 3.26 54.0946 2.78 53.3746 2.78C52.9146 2.82 52.6046 3.12 52.4446 3.68C52.3046 4.24 52.1646 5.15 52.0246 6.41C51.9046 7.67 51.8246 8.45 51.7846 8.75L51.6946 9.65ZM57.9546 0.919998C58.4146 0.439998 58.9746 0.199998 59.6346 0.199998C60.2946 0.199998 60.8546 0.439998 61.3146 0.919998C61.7946 1.38 62.0346 1.94 62.0346 2.6C62.0346 3.26 61.7946 3.82 61.3146 4.28C60.8546 4.74 60.2946 4.97 59.6346 4.97C58.9746 4.97 58.4146 4.74 57.9546 4.28C57.4946 3.82 57.2646 3.26 57.2646 2.6C57.2646 1.94 57.4946 1.38 57.9546 0.919998ZM56.7246 9.71C56.9246 9.35 57.3046 9.08 57.8646 8.9C58.4246 8.7 58.9746 8.6 59.5146 8.6C60.0746 8.6 60.5646 8.67 60.9846 8.81C60.2046 14.83 59.8146 17.87 59.8146 17.93C59.7146 18.33 59.6646 18.67 59.6646 18.95C59.6646 19.21 59.6846 19.44 59.7246 19.64C59.8046 20.16 60.1646 20.42 60.8046 20.42C61.4646 20.42 62.0646 20 62.6046 19.16C63.1646 18.3 63.5846 17.33 63.8646 16.25C64.0046 16.33 64.2246 16.57 64.5246 16.97C64.8246 17.37 65.0046 17.67 65.0646 17.87C64.6646 19.47 63.9846 20.76 63.0246 21.74C62.0646 22.72 60.9146 23.21 59.5746 23.21C58.2346 23.21 57.2346 22.88 56.5746 22.22C55.9346 21.56 55.6146 20.71 55.6146 19.67C55.6146 19.45 55.6246 19.22 55.6446 18.98L56.7246 9.71Z" fill="#FFB8C9"/>
</svg>
