<svg width="166" height="69" viewBox="0 0 166 69" fill="none" xmlns="http://www.w3.org/2000/svg">
<path d="M128.073 37.7131C131.273 31.3756 137.837 16.5045 138.49 7.71977" stroke="#038A00" stroke-width="4" stroke-linecap="round" stroke-linejoin="round"/>
<path d="M151.228 37.7131C148.028 31.3756 141.464 16.5045 140.811 7.71977" stroke="#038A00" stroke-width="4" stroke-linecap="round" stroke-linejoin="round"/>
<path d="M130.396 4.80719C132.773 6.18173 139.835 8.38716 149.073 6.21249" stroke="#038A00" stroke-width="4" stroke-linecap="round" stroke-linejoin="round"/>
<ellipse cx="128.073" cy="42.9271" rx="11.0729" ry="11.0729" fill="#FF2E00"/>
<ellipse cx="154.648" cy="42.9271" rx="11.0729" ry="11.0729" fill="#FF2E00"/>
<path d="M127.704 35.5452C124.997 36.2834 119.879 39.2361 121.06 45.1417" stroke="white" stroke-width="3" stroke-linecap="round" stroke-linejoin="round"/>
<path d="M127.704 35.5452C124.997 36.2834 119.879 39.2361 121.06 45.1417" stroke="white" stroke-width="3" stroke-linecap="round" stroke-linejoin="round"/>
<path d="M154.822 35.5452C152.115 36.2834 146.997 39.2361 148.178 45.1417" stroke="white" stroke-width="3" stroke-linecap="round" stroke-linejoin="round"/>
<path d="M16.6201 51.3C11.4535 51.3 7.65345 49.9833 5.22012 47.35C2.82012 44.7167 1.62012 41.25 1.62012 36.95C1.62012 32.6167 2.35345 28.6833 3.82012 25.15C5.32012 21.5833 7.53678 18.6667 10.4701 16.4C13.4035 14.1 16.5701 12.95 19.9701 12.95C23.4035 12.95 26.0868 13.7833 28.0201 15.45C29.9868 17.0833 30.9701 19.3 30.9701 22.1C30.9701 24.8667 30.1035 27.1667 28.3701 29C26.6701 30.8333 24.6701 31.75 22.3701 31.75C20.0701 31.75 18.2868 31.25 17.0201 30.25C15.7535 29.2167 15.1201 28.1333 15.1201 27C15.1201 25.8333 15.5701 24.9333 16.4701 24.3C17.4035 23.6333 18.7535 23.3 20.5201 23.3C20.0868 23.7333 19.8701 24.3167 19.8701 25.05C19.8701 25.75 20.0868 26.3667 20.5201 26.9C20.9535 27.4333 21.6201 27.7 22.5201 27.7C23.4201 27.7 24.3201 27.2333 25.2201 26.3C26.1201 25.3333 26.5701 24.0667 26.5701 22.5C26.5701 20.9333 26.0868 19.6833 25.1201 18.75C24.1868 17.8167 22.8535 17.35 21.1201 17.35C18.8535 17.35 16.7868 18.2667 14.9201 20.1C13.0868 21.9333 11.6868 24.2667 10.7201 27.1C9.75345 29.9333 9.27012 32.9167 9.27012 36.05C9.27012 38.75 9.85345 41.1333 11.0201 43.2C11.6201 44.2667 12.5035 45.1167 13.6701 45.75C14.8701 46.3833 16.2701 46.7 17.8701 46.7C20.6035 46.7 23.2368 45.8333 25.7701 44.1C28.3035 42.3333 30.4368 40.0667 32.1701 37.3L33.8701 40.35C31.9035 43.55 29.4368 46.1833 26.4701 48.25C23.5035 50.2833 20.2201 51.3 16.6201 51.3ZM44.1799 45.3L45.3799 34.25C45.3799 33.35 45.1466 32.6 44.6799 32C44.2132 31.4 43.4632 31.1 42.4299 31.1C41.3966 31.1 40.5132 31.5167 39.7799 32.35C39.0799 33.15 38.5632 34.2167 38.2299 35.55C37.9965 37.45 37.6465 40.2333 37.1799 43.9C36.7132 47.5333 36.4132 49.9 36.2799 51H29.6299C32.0299 30.5667 33.4799 18.0167 33.9799 13.35C34.6799 13.0833 35.6299 12.95 36.8299 12.95C39.4299 12.95 40.7299 13.7167 40.7299 15.25V15.55C40.1632 20.7833 39.5632 25.3833 38.9299 29.35C40.6965 27.75 42.6965 26.95 44.9299 26.95C47.1632 26.95 48.9299 27.5167 50.2299 28.65C51.5299 29.7833 52.1799 31.2167 52.1799 32.95C52.1799 33.4167 52.0799 34.2833 51.8799 35.55C51.1132 40.55 50.7299 43.4833 50.7299 44.35C50.7299 45.9167 51.2466 46.7 52.2799 46.7C53.1466 46.7 54.0632 46.1333 55.0299 45C56.0299 43.8333 56.8299 42.05 57.4299 39.65C58.5632 40.85 59.2466 41.8 59.4799 42.5C57.7466 48.3 54.6799 51.2 50.2799 51.2C48.2132 51.2 46.6799 50.5667 45.6799 49.3C44.6799 48.0333 44.1799 46.7 44.1799 45.3ZM64.6834 39.8C66.7501 39.3667 68.2834 38.5333 69.2834 37.3C70.3167 36.0667 70.8334 34.8833 70.8334 33.75C70.8334 32.5833 70.5167 31.8 69.8834 31.4C69.2834 30.9667 68.6167 30.75 67.8834 30.75C66.3167 30.75 64.9334 31.6333 63.7334 33.4C62.5667 35.1333 61.9834 37.2167 61.9834 39.65C61.9834 42.05 62.5501 43.85 63.6834 45.05C64.8501 46.2167 66.2834 46.8 67.9834 46.8C70.4834 46.8 72.8834 45.9333 75.1834 44.2C77.4834 42.4667 79.3501 40.2 80.7834 37.4C81.5167 38.1 82.1834 38.9667 82.7834 40C81.6834 42.5 79.7334 44.95 76.9334 47.35C75.5334 48.5167 73.8667 49.4667 71.9334 50.2C70.0334 50.9333 68.0667 51.3 66.0334 51.3C62.7001 51.3 60.0667 50.2833 58.1334 48.25C56.0667 46.05 55.0334 43.2333 55.0334 39.8C55.0334 36.3667 56.3167 33.3667 58.8834 30.8C61.4834 28.2333 64.5834 26.95 68.1834 26.95C70.7501 26.95 72.8334 27.5167 74.4334 28.65C76.0334 29.75 76.8501 31.25 76.8834 33.15C76.8834 35.7167 75.8501 37.8 73.7834 39.4C71.7501 41 68.9501 42.1167 65.3834 42.75L64.6834 39.8ZM85.3744 51.35C83.3411 51.35 81.7411 50.7833 80.5744 49.65C79.4077 48.4833 78.8244 46.9 78.8244 44.9C78.8244 44.3667 79.7244 36.45 81.5244 21.15C81.9911 17.2167 83.2411 14.7333 85.2744 13.7C86.2077 13.2 87.3244 12.95 88.6244 12.95C93.0244 12.95 95.2244 14.9833 95.2244 19.05C95.2244 19.3833 95.2077 19.7333 95.1744 20.1C94.8411 24.5667 92.0411 29.1167 86.7744 33.75C86.6077 35.3833 86.4244 36.9667 86.2244 38.5C85.8244 41.9333 85.6244 43.8333 85.6244 44.2C85.6244 45.9333 86.3744 46.8 87.8744 46.8C89.5077 46.8 91.0244 45.8667 92.4244 44C93.8577 42.1 94.9577 39.6833 95.7244 36.75C96.0244 36.85 96.4411 37.1333 96.9744 37.6C97.5077 38.0333 97.8744 38.4167 98.0744 38.75C97.5411 41.5167 96.3411 44.1667 94.4744 46.7C93.5411 48 92.3577 49.0667 90.9244 49.9C89.2911 50.8667 87.4411 51.35 85.3744 51.35ZM87.3244 28.75C90.3911 25.3833 91.9244 22.3667 91.9244 19.7C91.9244 18.1 91.3244 17.3 90.1244 17.3C89.3577 17.3667 88.8411 17.8667 88.5744 18.8C88.3411 19.7333 88.1077 21.25 87.8744 23.35C87.6744 25.45 87.5411 26.75 87.4744 27.25L87.3244 28.75ZM97.7576 14.2C98.5243 13.4 99.4576 13 100.558 13C101.658 13 102.591 13.4 103.358 14.2C104.158 14.9667 104.558 15.9 104.558 17C104.558 18.1 104.158 19.0333 103.358 19.8C102.591 20.5667 101.658 20.95 100.558 20.95C99.4576 20.95 98.5243 20.5667 97.7576 19.8C96.991 19.0333 96.6076 18.1 96.6076 17C96.6076 15.9 96.991 14.9667 97.7576 14.2ZM95.7076 28.85C96.041 28.25 96.6743 27.8 97.6076 27.5C98.541 27.1667 99.4576 27 100.358 27C101.291 27 102.108 27.1167 102.808 27.35C101.508 37.3833 100.858 42.45 100.858 42.55C100.691 43.2167 100.608 43.7833 100.608 44.25C100.608 44.6833 100.641 45.0667 100.708 45.4C100.841 46.2667 101.441 46.7 102.508 46.7C103.608 46.7 104.608 46 105.508 44.6C106.441 43.1667 107.141 41.55 107.608 39.75C107.841 39.8833 108.208 40.2833 108.708 40.95C109.208 41.6167 109.508 42.1167 109.608 42.45C108.941 45.1167 107.808 47.2667 106.208 48.9C104.608 50.5333 102.691 51.35 100.458 51.35C98.2243 51.35 96.5576 50.8 95.4576 49.7C94.391 48.6 93.8576 47.1833 93.8576 45.45C93.8576 45.0833 93.8743 44.7 93.9076 44.3L95.7076 28.85Z" fill="#FFB8C9"/>
</svg>
