<svg width="38" height="38" viewBox="0 0 38 38" fill="none" xmlns="http://www.w3.org/2000/svg">
<path d="M19 37.75C16.3958 37.75 13.9569 37.2556 11.6833 36.2667C9.40972 35.2778 7.43056 33.941 5.74584 32.2563C4.06111 30.5715 2.72431 28.5924 1.73542 26.3187C0.746531 24.0451 0.251392 21.6056 0.250003 19C0.248614 16.3944 0.743753 13.9556 1.73542 11.6833C2.72709 9.41111 4.0632 7.43194 5.74375 5.74583C7.42431 4.05972 9.40347 2.72292 11.6813 1.73542C13.959 0.747917 16.3986 0.252778 19 0.25C21.8472 0.25 24.5472 0.857639 27.1 2.07292C29.6528 3.28819 31.8139 5.00694 33.5833 7.22917V4.41667C33.5833 3.82639 33.7833 3.33194 34.1833 2.93333C34.5833 2.53472 35.0778 2.33472 35.6667 2.33333C36.2555 2.33194 36.7507 2.53194 37.1521 2.93333C37.5535 3.33472 37.7528 3.82917 37.75 4.41667V12.75C37.75 13.3403 37.55 13.8354 37.15 14.2354C36.75 14.6354 36.2555 14.8347 35.6667 14.8333H27.3333C26.743 14.8333 26.2486 14.6333 25.85 14.2333C25.4514 13.8333 25.2514 13.3389 25.25 12.75C25.2486 12.1611 25.4486 11.6667 25.85 11.2667C26.2514 10.8667 26.7458 10.6667 27.3333 10.6667H30.9792C29.5555 8.72222 27.8021 7.19444 25.7187 6.08333C23.6354 4.97222 21.3958 4.41667 19 4.41667C14.9375 4.41667 11.4917 5.83194 8.6625 8.6625C5.83334 11.4931 4.41806 14.9389 4.41667 19C4.41528 23.0611 5.83056 26.5076 8.6625 29.3396C11.4944 32.1715 14.9403 33.5861 19 33.5833C22.2986 33.5833 25.25 32.5938 27.8542 30.6146C30.4583 28.6354 32.1771 26.0833 33.0104 22.9583C33.184 22.4028 33.4965 21.9861 33.9479 21.7083C34.3993 21.4306 34.9028 21.3264 35.4583 21.3958C36.0486 21.4653 36.5174 21.7167 36.8646 22.15C37.2118 22.5833 37.316 23.0611 37.1771 23.5833C36.1701 27.7153 33.9826 31.1097 30.6146 33.7667C27.2465 36.4236 23.375 37.7514 19 37.75Z" fill="#B9B9B9"/>
</svg>
