<svg width="50" height="50" viewBox="0 0 50 50" fill="none" xmlns="http://www.w3.org/2000/svg">
<path d="M25.0001 45.8333C27.7365 45.8369 30.4466 45.2996 32.9747 44.2524C35.5028 43.2052 37.799 41.6687 39.7313 39.7312C41.6688 37.7989 43.2053 35.5026 44.2525 32.9746C45.2997 30.4465 45.837 27.7364 45.8334 25C45.8369 22.2636 45.2996 19.5535 44.2524 17.0254C43.2052 14.4973 41.6688 12.2011 39.7313 10.2687C37.799 8.33125 35.5028 6.79477 32.9747 5.74757C30.4466 4.70036 27.7365 4.1631 25.0001 4.16664C22.2637 4.16315 19.5536 4.70045 17.0255 5.74765C14.4975 6.79484 12.2013 8.3313 10.2688 10.2687C8.33142 12.2011 6.79497 14.4973 5.74777 17.0254C4.70057 19.5535 4.16328 22.2636 4.16677 25C4.16322 27.7364 4.70049 30.4465 5.74769 32.9746C6.79489 35.5026 8.33138 37.7989 10.2688 39.7312C12.2013 41.6686 14.4975 43.2051 17.0255 44.2523C19.5536 45.2995 22.2637 45.8368 25.0001 45.8333Z" stroke="#FFB8C9" stroke-width="6" stroke-linejoin="round"/>
</svg>
