<svg width="50" height="50" viewBox="0 0 50 50" fill="none" xmlns="http://www.w3.org/2000/svg">
<path d="M43.75 14.5833V35.4167C43.75 35.9692 43.5305 36.4991 43.1398 36.8898C42.7491 37.2805 42.2192 37.5 41.6667 37.5H8.33333C7.7808 37.5 7.25089 37.2805 6.86019 36.8898C6.46949 36.4991 6.25 35.9692 6.25 35.4167V14.5833M43.75 14.5833C43.75 14.0308 43.5305 13.5009 43.1398 13.1102C42.7491 12.7195 42.2192 12.5 41.6667 12.5H8.33333C7.7808 12.5 7.25089 12.7195 6.86019 13.1102C6.46949 13.5009 6.25 14.0308 6.25 14.5833M43.75 14.5833L27.6667 27.9854C26.918 28.609 25.9744 28.9505 25 28.9505C24.0256 28.9505 23.082 28.609 22.3333 27.9854L6.25 14.5833" stroke="#D9D9D9" stroke-width="3.5" stroke-linecap="round" stroke-linejoin="round"/>
</svg>
