<svg width="50" height="50" viewBox="0 0 50 50" fill="none" xmlns="http://www.w3.org/2000/svg">
<path fill-rule="evenodd" clip-rule="evenodd" d="M32.8125 15.625C32.8125 17.697 31.9894 19.6841 30.5243 21.1493C29.0591 22.6144 27.072 23.4375 25 23.4375C22.928 23.4375 20.9409 22.6144 19.4757 21.1493C18.0106 19.6841 17.1875 17.697 17.1875 15.625C17.1875 13.553 18.0106 11.5658 19.4757 10.1007C20.9409 8.63559 22.928 7.81249 25 7.81249C27.072 7.81249 29.0591 8.63559 30.5243 10.1007C31.9894 11.5658 32.8125 13.553 32.8125 15.625ZM34.4187 23.8437C35.9966 22.0354 37.0205 19.811 37.3682 17.4364C37.7158 15.0617 37.3725 12.6372 36.3793 10.4525C35.3861 8.26768 33.7849 6.41501 31.767 5.11577C29.7492 3.81653 27.4 3.12564 25 3.12564C22.6 3.12564 20.2508 3.81653 18.233 5.11577C16.2151 6.41501 14.6139 8.26768 13.6207 10.4525C12.6275 12.6372 12.2842 15.0617 12.6318 17.4364C12.9795 19.811 14.0034 22.0354 15.5813 23.8437C12.9077 24.5444 10.5418 26.1113 8.85343 28.2995C7.16508 30.4876 6.24955 33.1737 6.25 35.9375V40.625C6.25 42.2826 6.90848 43.8723 8.08058 45.0444C9.25268 46.2165 10.8424 46.875 12.5 46.875H37.5C39.1576 46.875 40.7473 46.2165 41.9194 45.0444C43.0915 43.8723 43.75 42.2826 43.75 40.625V35.9375C43.7505 33.1737 42.8349 30.4876 41.1466 28.2995C39.4582 26.1113 37.0923 24.5444 34.4187 23.8437ZM25 28.125H18.75C16.678 28.125 14.6909 28.9481 13.2257 30.4132C11.7606 31.8783 10.9375 33.8655 10.9375 35.9375V40.625C10.9375 41.0394 11.1021 41.4368 11.3951 41.7298C11.6882 42.0229 12.0856 42.1875 12.5 42.1875H37.5C37.9144 42.1875 38.3118 42.0229 38.6049 41.7298C38.8979 41.4368 39.0625 41.0394 39.0625 40.625V35.9375C39.0625 33.8655 38.2394 31.8783 36.7743 30.4132C35.3091 28.9481 33.322 28.125 31.25 28.125H25Z" fill="#FF97B0"/>
</svg>
