<svg width="50" height="50" viewBox="0 0 50 50" fill="none" xmlns="http://www.w3.org/2000/svg">
<g clip-path="url(#clip0_141_16)">
<path d="M25 0C11.1922 0 0 11.1922 0 25C0 38.8078 11.1922 50 25 50C38.8078 50 50 38.8078 50 25C50 18.3696 47.3661 12.0107 42.6777 7.32233C37.9893 2.63392 31.6304 0 25 0ZM25 43.75C14.6453 43.75 6.25 35.3547 6.25 25C6.25 14.6453 14.6453 6.25 25 6.25C35.3547 6.25 43.75 14.6453 43.75 25C43.7391 35.35 35.35 43.7391 25 43.75Z" fill="#D9D9D9"/>
<path d="M34.4063 21.875H28.125V15.5937C28.125 14.7732 27.7991 13.9863 27.2189 13.4061C26.6387 12.8259 25.8518 12.5 25.0313 12.5H24.9687C24.1482 12.5 23.3613 12.8259 22.7811 13.4061C22.2009 13.9863 21.875 14.7732 21.875 15.5937V21.875H15.5937C14.7732 21.875 13.9863 22.2009 13.4061 22.7811C12.8259 23.3613 12.5 24.1482 12.5 24.9687V25.0313C12.5 25.8518 12.8259 26.6387 13.4061 27.2189C13.9863 27.7991 14.7732 28.125 15.5937 28.125H21.875V34.4063C21.875 35.2268 22.2009 36.0137 22.7811 36.5939C23.3613 37.1741 24.1482 37.5 24.9687 37.5H25.0313C25.8518 37.5 26.6387 37.1741 27.2189 36.5939C27.7991 36.0137 28.125 35.2268 28.125 34.4063V28.125H34.4063C35.2268 28.125 36.0137 27.7991 36.5939 27.2189C37.1741 26.6387 37.5 25.8518 37.5 25.0313V24.9687C37.5 24.1482 37.1741 23.3613 36.5939 22.7811C36.0137 22.2009 35.2268 21.875 34.4063 21.875Z" fill="#D9D9D9"/>
</g>
<defs>
<clipPath id="clip0_141_16">
<rect width="50" height="50" fill="white"/>
</clipPath>
</defs>
</svg>
