<svg width="50" height="50" viewBox="0 0 50 50" fill="none" xmlns="http://www.w3.org/2000/svg">
<path fill-rule="evenodd" clip-rule="evenodd" d="M33.3333 18.75C33.3333 20.9601 32.4553 23.0797 30.8925 24.6425C29.3297 26.2053 27.2101 27.0833 25 27.0833C22.7898 27.0833 20.6702 26.2053 19.1074 24.6425C17.5446 23.0797 16.6666 20.9601 16.6666 18.75C16.6666 16.5399 17.5446 14.4202 19.1074 12.8574C20.6702 11.2946 22.7898 10.4167 25 10.4167C27.2101 10.4167 29.3297 11.2946 30.8925 12.8574C32.4553 14.4202 33.3333 16.5399 33.3333 18.75ZM29.1666 18.75C29.1666 19.8551 28.7276 20.9149 27.9462 21.6963C27.1648 22.4777 26.105 22.9167 25 22.9167C23.8949 22.9167 22.8351 22.4777 22.0537 21.6963C21.2723 20.9149 20.8333 19.8551 20.8333 18.75C20.8333 17.6449 21.2723 16.5851 22.0537 15.8037C22.8351 15.0223 23.8949 14.5833 25 14.5833C26.105 14.5833 27.1648 15.0223 27.9462 15.8037C28.7276 16.5851 29.1666 17.6449 29.1666 18.75Z" fill="#D9D9D9"/>
<path fill-rule="evenodd" clip-rule="evenodd" d="M25 2.08333C12.3437 2.08333 2.08331 12.3437 2.08331 25C2.08331 37.6562 12.3437 47.9167 25 47.9167C37.6562 47.9167 47.9166 37.6562 47.9166 25C47.9166 12.3437 37.6562 2.08333 25 2.08333ZM6.24998 25C6.24998 29.3542 7.7354 33.3625 10.225 36.5458C11.9734 34.2498 14.2289 32.389 16.8155 31.109C19.402 29.8289 22.2494 29.1642 25.1354 29.1667C27.984 29.164 30.7956 29.8115 33.3561 31.06C35.9165 32.3084 38.1582 34.1248 39.9104 36.3708C41.7155 34.0033 42.9309 31.24 43.456 28.3096C43.9811 25.3791 43.8009 22.3657 42.9302 19.5187C42.0595 16.6717 40.5234 14.073 38.4489 11.9376C36.3745 9.80213 33.8213 8.19137 31.0008 7.23855C28.1802 6.28574 25.1733 6.01827 22.2289 6.45827C19.2844 6.89827 16.487 8.0331 14.0682 9.76886C11.6495 11.5046 9.67875 13.7914 8.31921 16.44C6.95966 19.0886 6.25036 22.0228 6.24998 25ZM25 43.75C20.6957 43.7565 16.5214 42.2757 13.1833 39.5583C14.5269 37.6349 16.3153 36.0644 18.3962 34.9806C20.4772 33.8968 22.7891 33.3317 25.1354 33.3333C27.4524 33.3315 29.7364 33.8824 31.7977 34.9405C33.8591 35.9985 35.6382 37.533 36.9875 39.4167C33.6235 42.2223 29.3804 43.7561 25 43.75Z" fill="#D9D9D9"/>
</svg>
