<svg width="50" height="50" viewBox="0 0 50 50" fill="none" xmlns="http://www.w3.org/2000/svg">
<path d="M39.5832 41.6667H10.4166C9.86402 41.6667 9.33411 41.8861 8.94341 42.2768C8.55271 42.6675 8.33322 43.1975 8.33322 43.75C8.33322 44.3025 8.55271 44.8324 8.94341 45.2231C9.33411 45.6138 9.86402 45.8333 10.4166 45.8333H39.5832C40.1358 45.8333 40.6657 45.6138 41.0564 45.2231C41.4471 44.8324 41.6666 44.3025 41.6666 43.75C41.6666 43.1975 41.4471 42.6675 41.0564 42.2768C40.6657 41.8861 40.1358 41.6667 39.5832 41.6667ZM10.4166 37.5H10.6041L19.2916 36.7083C20.2432 36.6135 21.1333 36.1942 21.8124 35.5208L40.5624 16.7708C41.2901 16.002 41.6834 14.976 41.6561 13.9178C41.6288 12.8595 41.183 11.8552 40.4166 11.125L34.7082 5.41666C33.9632 4.71686 32.9869 4.31532 31.9652 4.28843C30.9434 4.26154 29.9473 4.61118 29.1666 5.27082L10.4166 24.0208C9.74315 24.6999 9.32385 25.59 9.22905 26.5417L8.33322 35.2292C8.30515 35.5343 8.34475 35.8419 8.44918 36.13C8.55361 36.418 8.72031 36.6795 8.93739 36.8958C9.13205 37.0889 9.36292 37.2417 9.61675 37.3453C9.87058 37.449 10.1424 37.5016 10.4166 37.5ZM31.8124 8.33332L37.4999 14.0208L33.3332 18.0833L27.7499 12.5L31.8124 8.33332ZM13.2707 26.8958L24.9999 15.25L30.6249 20.875L18.9582 32.5417L12.7082 33.125L13.2707 26.8958Z" fill="#B9B9B9"/>
</svg>
