<svg width="50" height="50" viewBox="0 0 50 50" fill="none" xmlns="http://www.w3.org/2000/svg">
<path d="M25 35.4167C23.8949 35.4167 22.8351 34.9777 22.0537 34.1963C21.2723 33.4149 20.8333 32.3551 20.8333 31.25C20.8333 28.9375 22.6875 27.0833 25 27.0833C26.105 27.0833 27.1649 27.5223 27.9463 28.3037C28.7277 29.0851 29.1666 30.1449 29.1666 31.25C29.1666 32.3551 28.7277 33.4149 27.9463 34.1963C27.1649 34.9777 26.105 35.4167 25 35.4167ZM37.5 41.6667V20.8333H12.5V41.6667H37.5ZM37.5 16.6667C38.605 16.6667 39.6649 17.1057 40.4463 17.8871C41.2277 18.6685 41.6666 19.7283 41.6666 20.8333V41.6667C41.6666 42.7717 41.2277 43.8315 40.4463 44.6129C39.6649 45.3943 38.605 45.8333 37.5 45.8333H12.5C11.3949 45.8333 10.3351 45.3943 9.5537 44.6129C8.7723 43.8315 8.33331 42.7717 8.33331 41.6667V20.8333C8.33331 18.5208 10.1875 16.6667 12.5 16.6667H14.5833V12.5C14.5833 9.73733 15.6808 7.08781 17.6343 5.1343C19.5878 3.1808 22.2373 2.08333 25 2.08333C26.3679 2.08333 27.7225 2.35277 28.9863 2.87626C30.2501 3.39974 31.3984 4.16703 32.3657 5.1343C33.333 6.10158 34.1002 7.24991 34.6237 8.51371C35.1472 9.77752 35.4166 11.1321 35.4166 12.5V16.6667H37.5ZM25 6.25C23.3424 6.25 21.7527 6.90848 20.5806 8.08058C19.4085 9.25269 18.75 10.8424 18.75 12.5V16.6667H31.25V12.5C31.25 10.8424 30.5915 9.25269 29.4194 8.08058C28.2473 6.90848 26.6576 6.25 25 6.25Z" fill="#D9D9D9"/>
</svg>
