<svg width="50" height="50" viewBox="0 0 50 50" fill="none" xmlns="http://www.w3.org/2000/svg">
<path d="M34.1583 16.1604C34.352 16.3539 34.5057 16.5837 34.6105 16.8366C34.7154 17.0895 34.7694 17.3606 34.7694 17.6344C34.7694 17.9082 34.7154 18.1793 34.6105 18.4322C34.5057 18.6851 34.352 18.9149 34.1583 19.1084L27.9458 25.3188L33.5208 30.8917C33.9118 31.2826 34.1314 31.8128 34.1314 32.3656C34.1314 32.9185 33.9118 33.4487 33.5208 33.8396C33.1299 34.2305 32.5997 34.4501 32.0469 34.4501C31.494 34.4501 30.9638 34.2305 30.5729 33.8396L25 28.2646L19.4271 33.8396C19.0362 34.2305 18.506 34.4501 17.9531 34.4501C17.4003 34.4501 16.8701 34.2305 16.4792 33.8396C16.0883 33.4487 15.8686 32.9185 15.8686 32.3656C15.8686 31.8128 16.0883 31.2826 16.4792 30.8917L22.0542 25.3188L15.8417 19.1084C15.6481 18.9147 15.4946 18.6847 15.3899 18.4317C15.2852 18.1787 15.2313 17.9075 15.2314 17.6337C15.2315 17.3598 15.2856 17.0887 15.3905 16.8357C15.4953 16.5828 15.649 16.353 15.8427 16.1594C16.0364 15.9658 16.2663 15.8123 16.5194 15.7076C16.7724 15.6029 17.0436 15.5491 17.3174 15.5492C17.5912 15.5493 17.8624 15.6033 18.1153 15.7082C18.3683 15.8131 18.5981 15.9667 18.7917 16.1604L25 22.375L31.2104 16.1625C31.4039 15.9688 31.6337 15.8152 31.8866 15.7103C32.1395 15.6055 32.4106 15.5515 32.6844 15.5515C32.9582 15.5515 33.2293 15.6055 33.4822 15.7103C33.7351 15.8152 33.9649 15.9667 34.1583 16.1604Z" fill="#FFB8C9"/>
<path fill-rule="evenodd" clip-rule="evenodd" d="M8.33325 2.08334C6.67565 2.08334 5.08594 2.74182 3.91383 3.91393C2.74173 5.08603 2.08325 6.67574 2.08325 8.33334V41.6667C2.08325 43.3243 2.74173 44.914 3.91383 46.0861C5.08594 47.2582 6.67565 47.9167 8.33325 47.9167H41.6666C43.3242 47.9167 44.9139 47.2582 46.086 46.0861C47.2581 44.914 47.9166 43.3243 47.9166 41.6667V8.33334C47.9166 6.67574 47.2581 5.08603 46.086 3.91393C44.9139 2.74182 43.3242 2.08334 41.6666 2.08334H8.33325ZM41.6666 6.25001H8.33325C7.78072 6.25001 7.25081 6.4695 6.86011 6.8602C6.46941 7.2509 6.24992 7.78081 6.24992 8.33334V41.6667C6.24992 42.2192 6.46941 42.7491 6.86011 43.1398C7.25081 43.5305 7.78072 43.75 8.33325 43.75H41.6666C42.2191 43.75 42.749 43.5305 43.1397 43.1398C43.5304 42.7491 43.7499 42.2192 43.7499 41.6667V8.33334C43.7499 7.78081 43.5304 7.2509 43.1397 6.8602C42.749 6.4695 42.2191 6.25001 41.6666 6.25001Z" fill="#FFB8C9"/>
</svg>
