<svg width="50" height="50" viewBox="0 0 50 50" fill="none" xmlns="http://www.w3.org/2000/svg">
<path d="M33.3333 6.25C33.8436 6.25007 34.3361 6.43741 34.7174 6.77649C35.0988 7.11557 35.3424 7.58281 35.4021 8.08958L35.4167 8.33333V10.4167H39.5833C40.6345 10.4163 41.647 10.8133 42.4178 11.5281C43.1886 12.2429 43.6607 13.2226 43.7396 14.2708L43.75 14.5833V39.5833C43.7503 40.6345 43.3533 41.647 42.6385 42.4178C41.9238 43.1886 40.9441 43.6607 39.8958 43.7396L39.5833 43.75H10.4167C9.36547 43.7503 8.35299 43.3533 7.58219 42.6385C6.8114 41.9238 6.33926 40.9441 6.26042 39.8958L6.25 39.5833V14.5833C6.24967 13.5321 6.64668 12.5197 7.36145 11.7489C8.07622 10.9781 9.05593 10.5059 10.1042 10.4271L10.4167 10.4167H14.5833V8.33333C14.5839 7.80233 14.7872 7.2916 15.1518 6.90548C15.5163 6.51937 16.0145 6.28701 16.5446 6.25589C17.0747 6.22477 17.5966 6.39724 18.0038 6.73805C18.411 7.07886 18.6727 7.5623 18.7354 8.08958L18.75 8.33333V10.4167H31.25V8.33333C31.25 7.7808 31.4695 7.25089 31.8602 6.86019C32.2509 6.46949 32.7808 6.25 33.3333 6.25ZM39.5833 25H10.4167V39.5833H39.5833V25ZM39.5833 14.5833H10.4167V20.8333H39.5833V14.5833Z" fill="#FFB8C9"/>
</svg>
