<svg width="50" height="50" viewBox="0 0 50 50" fill="none" xmlns="http://www.w3.org/2000/svg">
<path d="M25 43.75C22.3958 43.75 19.9569 43.2556 17.6833 42.2667C15.4097 41.2778 13.4306 39.941 11.7458 38.2563C10.0611 36.5715 8.72431 34.5924 7.73542 32.3187C6.74653 30.0451 6.25139 27.6056 6.25 25C6.24861 22.3944 6.74375 19.9556 7.73542 17.6833C8.72709 15.4111 10.0632 13.4319 11.7438 11.7458C13.4243 10.0597 15.4035 8.72292 17.6813 7.73542C19.959 6.74792 22.3986 6.25278 25 6.25C27.8472 6.25 30.5472 6.85764 33.1 8.07292C35.6528 9.28819 37.8139 11.0069 39.5833 13.2292V10.4167C39.5833 9.82639 39.7833 9.33194 40.1833 8.93333C40.5833 8.53472 41.0778 8.33472 41.6667 8.33333C42.2556 8.33194 42.7507 8.53194 43.1521 8.93333C43.5535 9.33472 43.7528 9.82917 43.75 10.4167V18.75C43.75 19.3403 43.55 19.8354 43.15 20.2354C42.75 20.6354 42.2556 20.8347 41.6667 20.8333H33.3333C32.743 20.8333 32.2486 20.6333 31.85 20.2333C31.4514 19.8333 31.2514 19.3389 31.25 18.75C31.2486 18.1611 31.4486 17.6667 31.85 17.2667C32.2514 16.8667 32.7458 16.6667 33.3333 16.6667H36.9792C35.5555 14.7222 33.8021 13.1944 31.7187 12.0833C29.6354 10.9722 27.3958 10.4167 25 10.4167C20.9375 10.4167 17.4917 11.8319 14.6625 14.6625C11.8333 17.4931 10.4181 20.9389 10.4167 25C10.4153 29.0611 11.8306 32.5076 14.6625 35.3396C17.4944 38.1715 20.9403 39.5861 25 39.5833C28.2986 39.5833 31.25 38.5938 33.8542 36.6146C36.4583 34.6354 38.1771 32.0833 39.0104 28.9583C39.184 28.4028 39.4965 27.9861 39.9479 27.7083C40.3993 27.4306 40.9028 27.3264 41.4583 27.3958C42.0486 27.4653 42.5174 27.7167 42.8646 28.15C43.2118 28.5833 43.316 29.0611 43.1771 29.5833C42.1701 33.7153 39.9826 37.1097 36.6146 39.7667C33.2465 42.4236 29.375 43.7514 25 43.75Z" fill="#333333"/>
</svg>
