<svg width="45" height="45" viewBox="0 0 45 45" fill="none" xmlns="http://www.w3.org/2000/svg">
<path d="M13.125 7.5C13.125 6.50544 13.5201 5.55161 14.2233 4.84835C14.9266 4.14509 15.8804 3.75 16.875 3.75H28.125C29.1196 3.75 30.0734 4.14509 30.7766 4.84835C31.4799 5.55161 31.875 6.50544 31.875 7.5V11.25H39.375C39.8723 11.25 40.3492 11.4475 40.7008 11.7992C41.0525 12.1508 41.25 12.6277 41.25 13.125C41.25 13.6223 41.0525 14.0992 40.7008 14.4508C40.3492 14.8025 39.8723 15 39.375 15H37.3706L35.745 37.7662C35.6777 38.7123 35.2543 39.5978 34.5602 40.2442C33.8661 40.8906 32.9529 41.25 32.0044 41.25H12.9937C12.0453 41.25 11.132 40.8906 10.4379 40.2442C9.74382 39.5978 9.32047 38.7123 9.25312 37.7662L7.63125 15H5.625C5.12772 15 4.65081 14.8025 4.29917 14.4508C3.94754 14.0992 3.75 13.6223 3.75 13.125C3.75 12.6277 3.94754 12.1508 4.29917 11.7992C4.65081 11.4475 5.12772 11.25 5.625 11.25H13.125V7.5ZM16.875 11.25H28.125V7.5H16.875V11.25ZM11.3887 15L12.9956 37.5H32.0062L33.6131 15H11.3887ZM18.75 18.75C19.2473 18.75 19.7242 18.9475 20.0758 19.2992C20.4275 19.6508 20.625 20.1277 20.625 20.625V31.875C20.625 32.3723 20.4275 32.8492 20.0758 33.2008C19.7242 33.5525 19.2473 33.75 18.75 33.75C18.2527 33.75 17.7758 33.5525 17.4242 33.2008C17.0725 32.8492 16.875 32.3723 16.875 31.875V20.625C16.875 20.1277 17.0725 19.6508 17.4242 19.2992C17.7758 18.9475 18.2527 18.75 18.75 18.75ZM26.25 18.75C26.7473 18.75 27.2242 18.9475 27.5758 19.2992C27.9275 19.6508 28.125 20.1277 28.125 20.625V31.875C28.125 32.3723 27.9275 32.8492 27.5758 33.2008C27.2242 33.5525 26.7473 33.75 26.25 33.75C25.7527 33.75 25.2758 33.5525 24.9242 33.2008C24.5725 32.8492 24.375 32.3723 24.375 31.875V20.625C24.375 20.1277 24.5725 19.6508 24.9242 19.2992C25.2758 18.9475 25.7527 18.75 26.25 18.75Z" fill="#D9D9D9"/>
</svg>
