<svg width="50" height="50" viewBox="0 0 50 50" fill="none" xmlns="http://www.w3.org/2000/svg">
<path d="M12.5 41.6667V20.8333H37.5V27.2708C38.1875 27.1667 38.875 27.0833 39.5833 27.0833C40.2916 27.0833 40.9791 27.1667 41.6666 27.2708V20.8333C41.6666 19.7283 41.2277 18.6685 40.4463 17.8871C39.6649 17.1057 38.605 16.6667 37.5 16.6667H35.4166V12.5C35.4166 6.75 30.75 2.08333 25 2.08333C19.25 2.08333 14.5833 6.75 14.5833 12.5V16.6667H12.5C10.1875 16.6667 8.33331 18.5208 8.33331 20.8333V41.6667C8.33331 42.7717 8.7723 43.8315 9.5537 44.6129C10.3351 45.3943 11.3949 45.8333 12.5 45.8333H28.7708C28.0416 44.5625 27.5416 43.1667 27.2708 41.6667H12.5ZM18.75 12.5C18.75 9.04167 21.5416 6.25 25 6.25C28.4583 6.25 31.25 9.04167 31.25 12.5V16.6667H18.75V12.5ZM29.1666 31.25C29.1666 33.5625 27.3125 35.4167 25 35.4167C23.8949 35.4167 22.8351 34.9777 22.0537 34.1963C21.2723 33.4149 20.8333 32.3551 20.8333 31.25C20.8333 28.9375 22.6875 27.0833 25 27.0833C26.105 27.0833 27.1649 27.5223 27.9463 28.3037C28.7277 29.0851 29.1666 30.1449 29.1666 31.25ZM47.9166 37.5V41.6667H41.6666V47.9167H37.5V41.6667H31.25V37.5H37.5V31.25H41.6666V37.5H47.9166Z" fill="#D9D9D9"/>
</svg>
